<?xml version="1.0" encoding="utf-8"?>
<!-- Generator: Adobe Illustrator 21.1.0, SVG Export Plug-In . SVG Version: 6.00 Build 0)  -->
<svg version="1.1" id="Layer_1" xmlns="http://www.w3.org/2000/svg" xmlns:xlink="http://www.w3.org/1999/xlink" x="0px" y="0px"
	 viewBox="0 0 55 55" style="enable-background:new 0 0 55 55;" xml:space="preserve">
<style type="text/css">
	.st0{fill:#DFDFDF;}
</style>
<title>Artboard 2 copy 46</title>
<g>
	<path class="st0" d="M49.7,31.3c-0.1-0.1-0.2-0.1-0.4-0.2l0,0H38.2v-3.9c0-0.5-0.4-0.8-0.8-0.8l0,0h-6.2v-2.2
		c0-0.5-0.4-0.8-0.8-0.8l0,0l0,0h-4.1V13.1h-4.8v10.3h-2.1V13h-4.8v10.3h-2.4c-0.5,0-0.8,0.4-0.8,0.8l0,0v7H10
		c-0.4,0-0.8,0.4-0.7,0.9c0,0.1,0,0.2,0.1,0.2L12,45.5h32.5l5.4-13C50.2,32.1,50.1,31.6,49.7,31.3z M23.1,14.6h1.5v8.6h-1.5V14.6z
		 M16.2,14.6h1.5v8.6h-1.5V14.6z M12.9,25h16.6v3.1h7.1v3.1H12.9V25z M43.5,43.7H13.3L11.5,33h26.8h9.1L43.5,43.7z"/>
	<path class="st0" d="M20.9,26.3c-0.9,0-1.6,0.8-1.6,1.7s0.8,1.6,1.7,1.6c0.9,0,1.6-0.7,1.6-1.6c0,0,0,0,0-0.1
		C22.6,27,21.9,26.3,20.9,26.3z M21,28.8c-0.5,0-0.8-0.4-0.8-0.8c0-0.5,0.4-0.8,0.8-0.8l0,0l0,0c0.5,0,0.8,0.4,0.8,0.8
		S21.5,28.8,21,28.8z"/>
	<path class="st0" d="M26,26.3c-0.9,0-1.7,0.7-1.7,1.7s0.7,1.7,1.7,1.7c0.9,0,1.6-0.7,1.7-1.6l0,0C27.7,27.1,26.9,26.3,26,26.3z
		 M26,28.8c-0.5,0-0.8-0.4-0.8-0.8c0-0.5,0.4-0.8,0.8-0.8l0,0l0,0c0.5,0,0.8,0.4,0.8,0.8S26.5,28.8,26,28.8z"/>
	<path class="st0" d="M15.9,26.3c-0.9,0-1.7,0.7-1.7,1.7c0,0.9,0.7,1.7,1.7,1.7c0.9,0,1.6-0.7,1.7-1.6l0,0
		C17.6,27.1,16.8,26.3,15.9,26.3z M15.9,28.8c-0.5,0-0.8-0.4-0.8-0.8c0-0.5,0.4-0.8,0.8-0.8l0,0l0,0c0.5,0,0.8,0.4,0.8,0.8
		C16.8,28.4,16.4,28.8,15.9,28.8z"/>
	<rect x="40.6" y="34.1" class="st0" width="2.8" height="1.4"/>
	<rect x="36.9" y="34.1" class="st0" width="2.8" height="1.4"/>
	<rect id="_Trazado_" x="7.4" y="42.1" class="st0" width="0.4" height="3.1"/>
	<g id="_Grupo_21">
		<rect id="_Trazado_2" x="5" y="44.5" class="st0" width="3.7" height="1"/>
	</g>
	<g id="_Grupo_22">
		<circle id="_Trazado_3" class="st0" cx="7.6" cy="41.1" r="1.1"/>
	</g>
</g>
</svg>
