<svg id="Layer_1" data-name="Layer 1" xmlns="http://www.w3.org/2000/svg" viewBox="0 0 55 55"><defs><style>.cls-1{fill:#23b083;}</style></defs><title>Artboard 2 copy 62 copia</title><g id="_Grupo_" data-name="&lt;Grupo&gt;"><g id="_Grupo_2" data-name="&lt;Grupo&gt;"><g id="_Grupo_3" data-name="&lt;Grupo&gt;"><path id="_Trazado_compuesto_" data-name="&lt;Trazado compuesto&gt;" class="cls-1" d="M41.06,10.13V47.95H8.7V10.13H41.06m2.12-2.05H6.58V50H43.18V8.08Z"/></g></g><g id="_Grupo_4" data-name="&lt;Grupo&gt;"><g id="_Grupo_5" data-name="&lt;Grupo&gt;"><path id="_Trazado_" data-name="&lt;Trazado&gt;" class="cls-1" d="M36,19H20a1,1,0,0,1,0-2H36a1,1,0,0,1,0,2Z"/></g></g><g id="_Grupo_6" data-name="&lt;Grupo&gt;"><g id="_Grupo_7" data-name="&lt;Grupo&gt;"><path id="_Trazado_2" data-name="&lt;Trazado&gt;" class="cls-1" d="M36,30H20a1,1,0,0,1,0-2H36a1,1,0,0,1,0,2Z"/></g></g><g id="_Grupo_8" data-name="&lt;Grupo&gt;"><g id="_Grupo_9" data-name="&lt;Grupo&gt;"><path id="_Trazado_3" data-name="&lt;Trazado&gt;" class="cls-1" d="M36,41H20a1,1,0,0,1,0-2H36a1,1,0,0,1,0,2Z"/></g></g><g id="_Grupo_10" data-name="&lt;Grupo&gt;"><g id="_Grupo_11" data-name="&lt;Grupo&gt;"><path id="_Trazado_compuesto_2" data-name="&lt;Trazado compuesto&gt;" class="cls-1" d="M16,17.15v1.91H14V17.15h2m1.5-1.5h-5v4.91h5V15.65Z"/></g></g><g id="_Grupo_12" data-name="&lt;Grupo&gt;"><g id="_Grupo_13" data-name="&lt;Grupo&gt;"><path id="_Trazado_compuesto_3" data-name="&lt;Trazado compuesto&gt;" class="cls-1" d="M16,28V30H14V28h2m1.5-1.5h-5v4.91h5V26.55Z"/></g></g><g id="_Grupo_14" data-name="&lt;Grupo&gt;"><g id="_Grupo_15" data-name="&lt;Grupo&gt;"><path id="_Trazado_compuesto_4" data-name="&lt;Trazado compuesto&gt;" class="cls-1" d="M16,38.94v1.91H14V38.94h2m1.5-1.5h-5v4.91h5V37.44Z"/></g></g><g id="_Grupo_16" data-name="&lt;Grupo&gt;"><g id="_Grupo_17" data-name="&lt;Grupo&gt;"><polygon id="_Trazado_4" data-name="&lt;Trazado&gt;" class="cls-1" points="47.92 5 10.92 5 10.92 10 13.92 10 13.92 7 45.92 7 45.92 45 40.92 45 40.92 47 47.92 47 47.92 5"/></g></g></g></svg>