<?xml version="1.0" encoding="utf-8"?>
<!-- Generator: Adobe Illustrator 21.1.0, SVG Export Plug-In . SVG Version: 6.00 Build 0)  -->
<svg version="1.1" id="Layer_1" xmlns="http://www.w3.org/2000/svg" xmlns:xlink="http://www.w3.org/1999/xlink" x="0px" y="0px"
	 viewBox="0 0 55 55" style="enable-background:new 0 0 55 55;" xml:space="preserve">
<style type="text/css">
	.st0{fill:#DFDFDF;}
</style>
<title>Artboard 2 copy 52</title>
<g id="_Grupo_">
	<g id="_Grupo_2">
		<g id="_Grupo_3">
			<path id="_Trazado_compuesto_" class="st0" d="M42.9,33L39,43.7H8.8L7,33H42.9 M44.9,31.2H5.5c-0.4,0-0.8,0.4-0.7,0.9
				c0,0.1,0,0.2,0.1,0.2l2.7,13.2H40l5.5-13c0.3-0.4,0.2-0.9-0.2-1.2C45.2,31.3,45,31.2,44.9,31.2L44.9,31.2z"/>
		</g>
	</g>
	<g id="_Grupo_4">
		<g id="_Grupo_5">
			<g id="_Grupo_6">
				<path id="_Trazado_compuesto_2" class="st0" d="M25,25v3.1h7.1v3.2H8.4V25H25 M25.8,23.3H7.6c-0.5,0-0.8,0.4-0.8,0.8
					c0,0,0,0,0,0V33h27v-5.8c0-0.5-0.4-0.8-0.8-0.8c0,0,0,0,0,0h-6.2v-2.2C26.7,23.7,26.3,23.3,25.8,23.3
					C25.9,23.4,25.9,23.4,25.8,23.3L25.8,23.3z"/>
			</g>
		</g>
		<g id="_Grupo_7">
			<g id="_Grupo_8">
				<path id="_Trazado_compuesto_3" class="st0" d="M16.5,29.6c-0.9,0-1.7-0.8-1.6-1.7s0.8-1.7,1.7-1.6c0.9,0,1.7,0.8,1.6,1.7
					c0,0,0,0,0,0C18.1,28.9,17.4,29.6,16.5,29.6z M16.5,27.1c-0.5,0-0.8,0.4-0.8,0.8s0.4,0.8,0.8,0.8s0.8-0.4,0.8-0.8l0,0
					C17.3,27.5,16.9,27.1,16.5,27.1C16.5,27.1,16.5,27.1,16.5,27.1L16.5,27.1z"/>
			</g>
		</g>
		<g id="_Grupo_9">
			<g id="_Grupo_10">
				<path id="_Trazado_compuesto_4" class="st0" d="M21.5,29.6c-0.9,0-1.7-0.8-1.6-1.7s0.8-1.7,1.7-1.6c0.9,0,1.7,0.8,1.6,1.7
					c0,0,0,0,0,0C23.1,28.9,22.4,29.6,21.5,29.6z M21.5,27.1c-0.5,0-0.8,0.4-0.8,0.8s0.4,0.8,0.8,0.8s0.8-0.4,0.8-0.8l0,0
					C22.3,27.5,22,27.1,21.5,27.1C21.5,27.1,21.5,27.1,21.5,27.1L21.5,27.1z"/>
			</g>
		</g>
		<g id="_Grupo_11">
			<g id="_Grupo_12">
				<path id="_Trazado_compuesto_5" class="st0" d="M11.4,29.6c-0.9,0-1.7-0.7-1.7-1.7c0-0.9,0.7-1.7,1.7-1.7c0.9,0,1.7,0.7,1.7,1.7
					c0,0,0,0,0,0C13.1,28.9,12.3,29.6,11.4,29.6z M11.4,27.1c-0.5,0-0.8,0.4-0.8,0.8s0.4,0.8,0.8,0.8s0.8-0.4,0.8-0.8l0,0
					C12.3,27.5,11.9,27.1,11.4,27.1C11.4,27.1,11.4,27.1,11.4,27.1L11.4,27.1z"/>
			</g>
		</g>
	</g>
	<g id="_Grupo_13">
		<g id="_Grupo_14">
			<path id="_Trazado_compuesto_6" class="st0" d="M14.8,24.9H10V13h4.8V24.9z M11.7,23.2h1.5v-8.6h-1.5V23.2z"/>
		</g>
	</g>
	<g id="_Grupo_15">
		<g id="_Grupo_16">
			<path id="_Trazado_compuesto_7" class="st0" d="M21.7,24.9h-4.8V13h4.8V24.9z M18.6,23.2h1.5v-8.6h-1.5V23.2z"/>
		</g>
	</g>
	<g id="_Grupo_17">
		<g id="_Grupo_18">
			<rect id="_Rectángulo_" x="36.1" y="34.1" class="st0" width="2.8" height="1.4"/>
		</g>
	</g>
	<g id="_Grupo_19">
		<g id="_Grupo_20">
			<rect id="_Rectángulo_2" x="32.4" y="34.1" class="st0" width="2.8" height="1.4"/>
		</g>
	</g>
</g>
<rect id="_Trazado_" x="47.2" y="42.1" class="st0" width="0.4" height="3.1"/>
<g id="_Grupo_21">
	<rect id="_Trazado_2" x="46.3" y="44.5" class="st0" width="3.7" height="1"/>
</g>
<g id="_Grupo_22">
	<circle id="_Trazado_3" class="st0" cx="47.5" cy="41.1" r="1.1"/>
</g>
</svg>
