<svg id="Layer_1" data-name="Layer 1" xmlns="http://www.w3.org/2000/svg" viewBox="0 0 55 55"><defs><style>.cls-1{fill:#dfdfdf;}</style></defs><title>Artboard 2 copy 66</title><g id="_Grupo_" data-name="&lt;Grupo&gt;"><path id="_Trazado_" data-name="&lt;Trazado&gt;" class="cls-1" d="M49.5,50H5.5a1,1,0,1,1,0-2h44a1,1,0,0,1,0,2Z"/></g><g id="_Grupo_2" data-name="&lt;Grupo&gt;"><g id="_Grupo_3" data-name="&lt;Grupo&gt;"><path id="_Trazado_compuesto_" data-name="&lt;Trazado compuesto&gt;" class="cls-1" d="M22.79,10.54l.66.38,6.78,17.3.25.64.62.3,7.23,3.5a13.64,13.64,0,0,1,6.13,5.87,14.88,14.88,0,0,1,1.08,2.34h-.2a5.79,5.79,0,0,1-2.59-.9L9.38,21.34V12.91l1,.47,3,7,.28.66.67.27,7.2,3,2.71,1.11-.28-2.92L22.79,10.54m-1.73-3a.3.3,0,0,0-.3.32l1.43,14.72-7.2-3-3.21-7.47L11.64,12,8.06,10.33a.3.3,0,0,0-.44.24v11.8L41.88,41.53a7.36,7.36,0,0,0,3.46,1.12,2,2,0,0,0,2-1.18c.24-.57-.44-2.14-1.32-3.77a15.49,15.49,0,0,0-6.92-6.62l-7.23-3.5L24.9,9.8l-.13-.15-3.57-2a.3.3,0,0,0-.15,0Z"/></g><g id="_Grupo_4" data-name="&lt;Grupo&gt;"><path id="_Trazado_compuesto_2" data-name="&lt;Trazado compuesto&gt;" class="cls-1" d="M26,36.33l-.36,0a2.54,2.54,0,0,1-2.16-2.87h0A2.54,2.54,0,1,1,26,36.33Zm-.77-2.65a.78.78,0,1,0,.88-.66.77.77,0,0,0-.88.66Z"/></g><g id="_Grupo_5" data-name="&lt;Grupo&gt;"><path id="_Trazado_compuesto_3" data-name="&lt;Trazado compuesto&gt;" class="cls-1" d="M19.65,33l-.36,0a2.55,2.55,0,0,1-2.16-2.87h0A2.54,2.54,0,1,1,19.65,33Zm-.77-2.65a.78.78,0,1,0,.88-.66.78.78,0,0,0-.88.66Z"/></g></g></svg>