<svg id="Layer_1" data-name="Layer 1" xmlns="http://www.w3.org/2000/svg" viewBox="0 0 55 55"><defs><style>.cls-1{fill:#23b083;}</style></defs><title>Artboard 2 copy 65 copia</title><g id="_Grupo_" data-name="&lt;Grupo&gt;"><path id="_Trazado_" data-name="&lt;Trazado&gt;" class="cls-1" d="M49.5,50H5.5a1,1,0,1,1,0-2h44a1,1,0,0,1,0,2Z"/></g><path id="_Trazado_compuesto_" data-name="&lt;Trazado compuesto&gt;" class="cls-1" d="M49.38,11.41c-.43-.45-2.14-.44-4-.29a15.49,15.49,0,0,0-8.82,3.72l-6.08,5.25L11.4,19.41l-.19.06L7.92,21.93a.3.3,0,0,0,.08.52L22.08,27,16.5,32.43l-8.13,0-.19.07-3,2.62a.3.3,0,0,0,0,.49l10.83,4.69,9.69-7.41c0,.06,0,.12,0,.17a2.52,2.52,0,0,0,1.15,1.57h0a2.54,2.54,0,1,0,2.39-4.47l2.08-1.59a2.54,2.54,0,0,0,4.63.68,2.49,2.49,0,0,0,.16-.32,2.55,2.55,0,0,0-1-3.18l-.06,0,12.14-9.27a7.36,7.36,0,0,0,2.4-2.73A2,2,0,0,0,49.38,11.41ZM28.93,32.84a.78.78,0,0,1-1.42-.22A.78.78,0,0,1,29,32.25.78.78,0,0,1,28.93,32.84Zm5.6-4.53a.78.78,0,1,1-.26-1.07A.77.77,0,0,1,34.53,28.31ZM48.05,13a5.79,5.79,0,0,1-1.85,2L15.83,38.23,8.1,34.89l.82-.72,7.58,0h.72l.52-.5,5.58-5.44,2.1-2-2.79-.9L11.25,21.65l.6-.45,18.57.65.69,0,.52-.45,6.08-5.25a13.64,13.64,0,0,1,7.82-3.3,14.88,14.88,0,0,1,2.58-.06A1.38,1.38,0,0,1,48.05,13Z"/></svg>