<svg id="Layer_1" data-name="Layer 1" xmlns="http://www.w3.org/2000/svg" viewBox="0 0 55 55"><defs><style>.cls-1{fill:#dfdfdf;}</style></defs><title>Artboard 2 copy 60</title><g id="_Grupo_" data-name="&lt;Grupo&gt;"><polygon id="_Trazado_" data-name="&lt;Trazado&gt;" class="cls-1" points="21.92 48 23.92 48 23.92 26 49.92 26 49.92 24 21.92 24 21.92 48"/><polygon id="_Trazado_2" data-name="&lt;Trazado&gt;" class="cls-1" points="21.92 48 21.92 50 49.92 50 49.92 48 24.04 48 21.92 48"/><rect id="_Trazado_3" data-name="&lt;Trazado&gt;" class="cls-1" x="27.92" y="18" width="5" height="3"/><rect id="_Trazado_4" data-name="&lt;Trazado&gt;" class="cls-1" x="42.92" y="18" width="6" height="3"/><polygon id="_Trazado_5" data-name="&lt;Trazado&gt;" class="cls-1" points="45.82 5 12.92 15.31 12.92 30 14.92 30 14.92 16.77 45.82 7.09 49.92 8.32 49.92 6.23 45.82 5"/><g id="_Grupo_2" data-name="&lt;Grupo&gt;"><g id="_Grupo_3" data-name="&lt;Grupo&gt;"><path id="_Trazado_compuesto_" data-name="&lt;Trazado compuesto&gt;" class="cls-1" d="M13.69,50.05H5.25V40.46h8.44Zm-6.44-2h4.44V42.46H7.25Z"/></g></g><g id="_Grupo_4" data-name="&lt;Grupo&gt;"><path id="_Trazado_compuesto_2" data-name="&lt;Trazado compuesto&gt;" class="cls-1" d="M20.12,50.05H11.69V40.46h8.44Zm-6.44-2h4.44V42.46H13.69Z"/></g><g id="_Grupo_5" data-name="&lt;Grupo&gt;"><path id="_Trazado_compuesto_3" data-name="&lt;Trazado compuesto&gt;" class="cls-1" d="M20.12,42.46H11.69V32.18h8.44Zm-6.44-2h4.44V34.18H13.69Z"/></g></g></svg>