<svg id="Layer_1" data-name="Layer 1" xmlns="http://www.w3.org/2000/svg" viewBox="0 0 55 55"><defs><style>.cls-1{fill:#dfdfdf;}</style></defs><title>Artboard 2 copy 68</title><g id="_Grupo_" data-name="&lt;Grupo&gt;"><path id="_Trazado_" data-name="&lt;Trazado&gt;" class="cls-1" d="M30.68,8c.82,0,1.5,1,2,2H47.92V48h-41V10H22.33c.49-1,1.18-2,2-2H4.92V50h45V8Z"/></g><g id="_Grupo_2" data-name="&lt;Grupo&gt;"><g id="_Grupo_3" data-name="&lt;Grupo&gt;"><g id="_Grupo_4" data-name="&lt;Grupo&gt;"><path id="_Trazado_2" data-name="&lt;Trazado&gt;" class="cls-1" d="M27.5,6a7,7,0,0,1,7,6.8h1a8,8,0,0,0-16,0h1A7,7,0,0,1,27.5,6Z"/></g><g id="_Grupo_5" data-name="&lt;Grupo&gt;"><path id="_Trazado_3" data-name="&lt;Trazado&gt;" class="cls-1" d="M27.5,6a7,7,0,0,0-7,6.8h1a6,6,0,0,1,12,0h1A7,7,0,0,0,27.5,6Z"/></g><g id="_Grupo_6" data-name="&lt;Grupo&gt;"><path id="_Trazado_4" data-name="&lt;Trazado&gt;" class="cls-1" d="M43,12.8H35.5c0,.08,0,.16,0,.25a8.07,8.07,0,0,1-.2,1.75H43a1,1,0,0,0,0-2Z"/></g><g id="_Grupo_7" data-name="&lt;Grupo&gt;"><path id="_Trazado_5" data-name="&lt;Trazado&gt;" class="cls-1" d="M19.5,12.8H12a1,1,0,0,0,0,2h7.69a8.07,8.07,0,0,1-.2-1.75C19.49,13,19.5,12.88,19.5,12.8Z"/></g><g id="_Grupo_8" data-name="&lt;Grupo&gt;"><path id="_Trazado_6" data-name="&lt;Trazado&gt;" class="cls-1" d="M21.75,14.8h11.5A6.06,6.06,0,0,0,33.51,13c0-.08,0-.16,0-.25h-12c0,.08,0,.16,0,.25A6.06,6.06,0,0,0,21.75,14.8Z"/></g><g id="_Grupo_9" data-name="&lt;Grupo&gt;"><path id="_Trazado_7" data-name="&lt;Trazado&gt;" class="cls-1" d="M35.5,12.8h-1c0,.08,0,.16,0,.25a7.07,7.07,0,0,1-.23,1.75h1a8.07,8.07,0,0,0,.2-1.75C35.51,13,35.5,12.88,35.5,12.8Z"/></g><g id="_Grupo_10" data-name="&lt;Grupo&gt;"><path id="_Trazado_8" data-name="&lt;Trazado&gt;" class="cls-1" d="M20.49,13c0-.08,0-.16,0-.25h-1c0,.08,0,.16,0,.25a8.07,8.07,0,0,0,.2,1.75h1A7.07,7.07,0,0,1,20.49,13Z"/></g><g id="_Grupo_11" data-name="&lt;Grupo&gt;"><path id="_Trazado_9" data-name="&lt;Trazado&gt;" class="cls-1" d="M21.49,13c0-.08,0-.16,0-.25h-1c0,.08,0,.16,0,.25a7.07,7.07,0,0,0,.23,1.75h1A6.06,6.06,0,0,1,21.49,13Z"/></g><g id="_Grupo_12" data-name="&lt;Grupo&gt;"><path id="_Trazado_10" data-name="&lt;Trazado&gt;" class="cls-1" d="M33.51,13a6.06,6.06,0,0,1-.26,1.75h1A7.07,7.07,0,0,0,34.51,13c0-.08,0-.16,0-.25h-1C33.5,12.88,33.51,13,33.51,13Z"/></g></g></g><g id="_Grupo_13" data-name="&lt;Grupo&gt;"><g id="_Grupo_14" data-name="&lt;Grupo&gt;"><path id="_Trazado_11" data-name="&lt;Trazado&gt;" class="cls-1" d="M24.31,38.86,16.42,31a1,1,0,0,1,1.41-1.41L24.31,36,37.17,23.18a1,1,0,0,1,1.41,1.41Z"/></g></g></svg>