<svg id="Layer_1" data-name="Layer 1" xmlns="http://www.w3.org/2000/svg" viewBox="0 0 55 55"><defs><style>.cls-1{fill:#23b083;}</style></defs><title>Artboard 2 copy 67 copia</title><g id="_Grupo_" data-name="&lt;Grupo&gt;"><polygon id="_Trazado_" data-name="&lt;Trazado&gt;" class="cls-1" points="14.3 35.29 18.7 35.29 17.7 19.87 15.3 19.87 14.3 35.29"/></g><g id="_Grupo_2" data-name="&lt;Grupo&gt;"><circle id="_Trazado_2" data-name="&lt;Trazado&gt;" class="cls-1" cx="16.5" cy="15.54" r="3.06"/></g><g id="_Grupo_3" data-name="&lt;Grupo&gt;"><path id="_Trazado_compuesto_" data-name="&lt;Trazado compuesto&gt;" class="cls-1" d="M48,7V40.08L44.72,46l-3.45-5.84-.58-1H7V7H48m2-2H5V41.15H39.55L44.77,50,50,40.6V5Z"/></g><g id="_Grupo_4" data-name="&lt;Grupo&gt;"><g id="_Grupo_5" data-name="&lt;Grupo&gt;"><path id="_Trazado_3" data-name="&lt;Trazado&gt;" class="cls-1" d="M40.58,17H25.92a1,1,0,0,1,0-2H40.58a1,1,0,0,1,0,2Z"/></g></g><g id="_Grupo_6" data-name="&lt;Grupo&gt;"><g id="_Grupo_7" data-name="&lt;Grupo&gt;"><path id="_Trazado_4" data-name="&lt;Trazado&gt;" class="cls-1" d="M40.58,24H25.92a1,1,0,0,1,0-2H40.58a1,1,0,0,1,0,2Z"/></g></g><g id="_Grupo_8" data-name="&lt;Grupo&gt;"><g id="_Grupo_9" data-name="&lt;Grupo&gt;"><path id="_Trazado_5" data-name="&lt;Trazado&gt;" class="cls-1" d="M40.58,31H25.92a1,1,0,0,1,0-2H40.58a1,1,0,0,1,0,2Z"/></g></g></svg>