<svg id="Layer_1" data-name="Layer 1" xmlns="http://www.w3.org/2000/svg" viewBox="0 0 55 55"><defs><style>.cls-1{fill:#23b083;}</style></defs><title>Artboard 2 copy 82</title><g id="_Grupo_" data-name="&lt;Grupo&gt;"><g id="_Grupo_2" data-name="&lt;Grupo&gt;"><g id="_Grupo_3" data-name="&lt;Grupo&gt;"><path id="_Trazado_compuesto_" data-name="&lt;Trazado compuesto&gt;" class="cls-1" d="M41.06,10.13V47.95H8.7V10.13H41.06m2.12-2.05H6.58V50H43.18V8.07Z"/></g></g><g id="_Grupo_4" data-name="&lt;Grupo&gt;"><g id="_Grupo_5" data-name="&lt;Grupo&gt;"><path id="_Trazado_" data-name="&lt;Trazado&gt;" class="cls-1" d="M36,19.26H20.73a1,1,0,0,1,0-2H36a1,1,0,0,1,0,2Z"/></g></g><g id="_Grupo_6" data-name="&lt;Grupo&gt;"><g id="_Grupo_7" data-name="&lt;Grupo&gt;"><path id="_Trazado_2" data-name="&lt;Trazado&gt;" class="cls-1" d="M36,30.26H20.73a1,1,0,0,1,0-2H36a1,1,0,0,1,0,2Z"/></g></g><g id="_Grupo_8" data-name="&lt;Grupo&gt;"><g id="_Grupo_9" data-name="&lt;Grupo&gt;"><path id="_Trazado_3" data-name="&lt;Trazado&gt;" class="cls-1" d="M36,41.26H20.73a1,1,0,0,1,0-2H36a1,1,0,0,1,0,2Z"/></g></g><g id="_Grupo_10" data-name="&lt;Grupo&gt;"><g id="_Grupo_11" data-name="&lt;Grupo&gt;"><polygon id="_Trazado_4" data-name="&lt;Trazado&gt;" class="cls-1" points="48.51 5.26 11.51 5.26 11.51 9.26 14.51 9.26 14.51 7.26 46.51 7.26 46.51 45.26 42.51 45.26 42.51 47.26 48.51 47.26 48.51 5.26"/></g></g><g id="_Grupo_12" data-name="&lt;Grupo&gt;"><path id="_Trazado_5" data-name="&lt;Trazado&gt;" class="cls-1" d="M14.45,42.86,12,41a.59.59,0,0,1,.7-.95l1.44,1.07,1.64-2.82a.59.59,0,1,1,1,.59Z"/></g><g id="_Grupo_13" data-name="&lt;Grupo&gt;"><path id="_Trazado_6" data-name="&lt;Trazado&gt;" class="cls-1" d="M14.45,31.68,12,29.83a.59.59,0,0,1,.7-.95L14.1,30l1.64-2.82a.59.59,0,0,1,1,.59Z"/></g><g id="_Grupo_14" data-name="&lt;Grupo&gt;"><path id="_Trazado_7" data-name="&lt;Trazado&gt;" class="cls-1" d="M14.45,20.68,12,18.83a.59.59,0,0,1,.7-.95L14.1,19l1.64-2.82a.59.59,0,0,1,1,.59Z"/></g></g></svg>