<svg id="Layer_1" data-name="Layer 1" xmlns="http://www.w3.org/2000/svg" viewBox="0 0 55 55"><defs><style>.cls-1{fill:#dfdfdf;}</style></defs><title>Artboard 2 copy 42</title><g id="_Grupo_" data-name="&lt;Grupo&gt;"><polygon id="_Trazado_" data-name="&lt;Trazado&gt;" class="cls-1" points="22.11 48 24.11 48 24.11 26 50.11 26 50.11 24 22.11 24 22.11 48"/><polygon id="_Trazado_2" data-name="&lt;Trazado&gt;" class="cls-1" points="22.11 48 22.11 50 50.11 50 50.11 48 24.04 48 22.11 48"/><rect id="_Trazado_3" data-name="&lt;Trazado&gt;" class="cls-1" x="28.11" y="18" width="5" height="3"/><rect id="_Trazado_4" data-name="&lt;Trazado&gt;" class="cls-1" x="43.11" y="18" width="6" height="3"/><polygon id="_Trazado_5" data-name="&lt;Trazado&gt;" class="cls-1" points="46.01 5 13.11 15.31 13.11 30 15.11 30 15.11 16.77 46.01 7.09 50.11 8.32 50.11 6.23 46.01 5"/><g id="_Grupo_2" data-name="&lt;Grupo&gt;"><g id="_Grupo_3" data-name="&lt;Grupo&gt;"><path id="_Trazado_compuesto_" data-name="&lt;Trazado compuesto&gt;" class="cls-1" d="M13.69,50.05H5.25V40.46h8.44Zm-6.44-2h4.44V42.46H7.25Z"/></g></g><g id="_Grupo_4" data-name="&lt;Grupo&gt;"><path id="_Trazado_compuesto_2" data-name="&lt;Trazado compuesto&gt;" class="cls-1" d="M20.12,50.05H11.69V40.46h8.44Zm-6.44-2h4.44V42.46H13.69Z"/></g><g id="_Grupo_5" data-name="&lt;Grupo&gt;"><path id="_Trazado_compuesto_3" data-name="&lt;Trazado compuesto&gt;" class="cls-1" d="M20.12,42.46H11.69V32.18h8.44Zm-6.44-2h4.44V34.18H13.69Z"/></g></g></svg>