<svg id="Layer_1" data-name="Layer 1" xmlns="http://www.w3.org/2000/svg" viewBox="0 0 55 55"><defs><style>.cls-1{fill:#23b083;}</style></defs><title>Artboard 2 copy 64 copia</title><g id="_Grupo_" data-name="&lt;Grupo&gt;"><g id="_Grupo_2" data-name="&lt;Grupo&gt;"><path id="_Trazado_compuesto_" data-name="&lt;Trazado compuesto&gt;" class="cls-1" d="M48,7.4V47.6H7V7.4H48m2-2H5V49.6H50V5.4Z"/></g></g><g id="_Grupo_3" data-name="&lt;Grupo&gt;"><g id="_Grupo_4" data-name="&lt;Grupo&gt;"><g id="_Grupo_5" data-name="&lt;Grupo&gt;"><g id="_Grupo_6" data-name="&lt;Grupo&gt;"><g id="_Grupo_7" data-name="&lt;Grupo&gt;"><g id="_Grupo_8" data-name="&lt;Grupo&gt;"><path id="_Trazado_" data-name="&lt;Trazado&gt;" class="cls-1" d="M34,34.09V45c0,.25,0,.45-.5.45s-.5-.2-.5-.45V34.09c0-.25,0-.45.5-.45S34,33.84,34,34.09Z"/></g></g></g><g id="_Grupo_9" data-name="&lt;Grupo&gt;"><g id="_Grupo_10" data-name="&lt;Grupo&gt;"><g id="_Grupo_11" data-name="&lt;Grupo&gt;"><path id="_Trazado_2" data-name="&lt;Trazado&gt;" class="cls-1" d="M37.36,36.09a.47.47,0,0,1-.22.39.82.82,0,0,1-.95,0L33.5,34.11l-2.68,2.32a.81.81,0,0,1-.95,0,.44.44,0,0,1-.05-.73l3.68-3.19,3.69,3.19A.46.46,0,0,1,37.36,36.09Z"/></g></g></g></g><g id="_Grupo_12" data-name="&lt;Grupo&gt;"><g id="_Grupo_13" data-name="&lt;Grupo&gt;"><g id="_Grupo_14" data-name="&lt;Grupo&gt;"><g id="_Grupo_15" data-name="&lt;Grupo&gt;"><path id="_Trazado_3" data-name="&lt;Trazado&gt;" class="cls-1" d="M43,34.09V45c0,.25,0,.45-.5.45s-.5-.2-.5-.45V34.09c0-.25,0-.45.5-.45S43,33.84,43,34.09Z"/></g></g></g><g id="_Grupo_16" data-name="&lt;Grupo&gt;"><g id="_Grupo_17" data-name="&lt;Grupo&gt;"><g id="_Grupo_18" data-name="&lt;Grupo&gt;"><path id="_Trazado_4" data-name="&lt;Trazado&gt;" class="cls-1" d="M46.36,36.09a.47.47,0,0,1-.22.39.82.82,0,0,1-.95,0L42.5,34.11l-2.68,2.32a.81.81,0,0,1-.95,0,.44.44,0,0,1-.05-.73l3.68-3.19,3.69,3.19A.46.46,0,0,1,46.36,36.09Z"/></g></g></g></g></g><g id="_Grupo_19" data-name="&lt;Grupo&gt;"><g id="_Grupo_20" data-name="&lt;Grupo&gt;"><rect id="_Rect치ngulo_" data-name="&lt;Rect치ngulo&gt;" class="cls-1" x="30.71" y="44.96" width="15.65" height="0.91" rx="0.45" ry="0.45"/></g></g></g><g id="_Grupo_21" data-name="&lt;Grupo&gt;"><g id="_Grupo_22" data-name="&lt;Grupo&gt;"><rect id="_Rect치ngulo_2" data-name="&lt;Rect치ngulo&gt;" class="cls-1" x="20.14" y="14.03" width="14.72" height="3.92" rx="1.96" ry="1.96"/></g></g><g id="_Grupo_23" data-name="&lt;Grupo&gt;"><g id="_Grupo_24" data-name="&lt;Grupo&gt;"><path id="_Trazado_5" data-name="&lt;Trazado&gt;" class="cls-1" d="M24,46H10a.5.5,0,0,1,0-1H24a.5.5,0,0,1,0,1Z"/></g></g><g id="_Grupo_25" data-name="&lt;Grupo&gt;"><g id="_Grupo_26" data-name="&lt;Grupo&gt;"><path id="_Trazado_6" data-name="&lt;Trazado&gt;" class="cls-1" d="M24,44H10a.5.5,0,0,1,0-1H24a.5.5,0,0,1,0,1Z"/></g></g><g id="_Grupo_27" data-name="&lt;Grupo&gt;"><g id="_Grupo_28" data-name="&lt;Grupo&gt;"><path id="_Trazado_7" data-name="&lt;Trazado&gt;" class="cls-1" d="M24,42H10a.5.5,0,0,1,0-1H24a.5.5,0,0,1,0,1Z"/></g></g></svg>