<svg id="Layer_1" data-name="Layer 1" xmlns="http://www.w3.org/2000/svg" viewBox="0 0 55 55"><defs><style>.cls-1{fill:#dfdfdf;}</style></defs><title>Artboard 2 copy 63</title><g id="_Grupo_" data-name="&lt;Grupo&gt;"><g id="_Grupo_2" data-name="&lt;Grupo&gt;"><path id="_Trazado_compuesto_" data-name="&lt;Trazado compuesto&gt;" class="cls-1" d="M49.94,37.44a3.49,3.49,0,0,0-2.73-2.73,3.57,3.57,0,0,0-.42,0l2.12-1a1,1,0,0,0-.82-1.82l-20.1,9a5.36,5.36,0,0,0-1-.42l-.22-.08a4.91,4.91,0,0,0-1.35-.2l-13-29.29L5.59,14a1,1,0,1,0,.82,1.83l5.07-2.27,12,27a5.15,5.15,0,1,0,6.15,1.77L43.76,36a3.46,3.46,0,0,0,2.08,5.5,3.63,3.63,0,0,0,.68.07A3.48,3.48,0,0,0,49.94,37.44ZM25.44,48.71a3.34,3.34,0,1,1,3.36-3.36A3.36,3.36,0,0,1,25.44,48.71ZM48,39.32a1.87,1.87,0,0,1-1.45.68,2.07,2.07,0,0,1-.39,0,1.88,1.88,0,0,1,.39-3.71,2.08,2.08,0,0,1,.39,0,1.87,1.87,0,0,1,1.06,3Z"/></g><g id="_Grupo_3" data-name="&lt;Grupo&gt;"><path id="_Trazado_compuesto_2" data-name="&lt;Trazado compuesto&gt;" class="cls-1" d="M40.78,17.32l6.51,14.94L35.95,37.21,29.43,22.26l11.34-4.94m.78-2L27.46,21.49l7.71,17.69L49.27,33,41.55,15.34Z"/></g><g id="_Grupo_4" data-name="&lt;Grupo&gt;"><path id="_Trazado_compuesto_3" data-name="&lt;Trazado compuesto&gt;" class="cls-1" d="M32,7.63l4.35,10-7.61,3.32-4.35-10L32,7.63m.78-2L22.46,10.17,28,22.9l10.36-4.52L32.81,5.66Z"/></g><g id="_Grupo_5" data-name="&lt;Grupo&gt;"><path id="_Trazado_compuesto_4" data-name="&lt;Trazado compuesto&gt;" class="cls-1" d="M22.18,9.18,34.64,37.77l-5.49,2.39L16.69,11.58l5.49-2.39m.78-2L14.72,10.8,28.38,42.14l8.24-3.59L23,7.21Z"/></g><g id="_Grupo_6" data-name="&lt;Grupo&gt;"><path id="_Trazado_compuesto_5" data-name="&lt;Trazado compuesto&gt;" class="cls-1" d="M37.16,24.14l-1-2.23L40.52,20l1,2.23Zm.34-1.72.17.4,2.5-1.09-.17-.4Z"/></g></g></svg>