<svg id="Layer_1" data-name="Layer 1" xmlns="http://www.w3.org/2000/svg" viewBox="0 0 55 55"><defs><style>.cls-1{fill:#23b083;}</style></defs><title>Artboard 2 copy 75</title><g id="_Grupo_" data-name="&lt;Grupo&gt;"><g id="_Grupo_2" data-name="&lt;Grupo&gt;"><g id="_Grupo_3" data-name="&lt;Grupo&gt;"><path id="_Trazado_compuesto_" data-name="&lt;Trazado compuesto&gt;" class="cls-1" d="M47.36,33,43.52,43.69H13.27L11.45,33H47.36m2-1.81H10a.8.8,0,0,0-.66,1.11L12,45.5H44.46l5.45-13a.83.83,0,0,0-.55-1.32Z"/></g></g><g id="_Grupo_4" data-name="&lt;Grupo&gt;"><g id="_Grupo_5" data-name="&lt;Grupo&gt;"><g id="_Grupo_6" data-name="&lt;Grupo&gt;"><path id="_Trazado_compuesto_2" data-name="&lt;Trazado compuesto&gt;" class="cls-1" d="M29.52,25V28.1h7.09v3.22H12.92V25H29.52m.82-1.67H12.1a.84.84,0,0,0-.85.83V33h27V27.25a.84.84,0,0,0-.85-.83H31.19V24.18a.84.84,0,0,0-.85-.83Z"/></g></g><g id="_Grupo_7" data-name="&lt;Grupo&gt;"><g id="_Grupo_8" data-name="&lt;Grupo&gt;"><path id="_Trazado_compuesto_3" data-name="&lt;Trazado compuesto&gt;" class="cls-1" d="M21,29.63A1.66,1.66,0,1,1,22.63,28,1.67,1.67,0,0,1,21,29.63Zm0-2.49a.83.83,0,1,0,.83.83A.83.83,0,0,0,21,27.13Z"/></g></g><g id="_Grupo_9" data-name="&lt;Grupo&gt;"><g id="_Grupo_10" data-name="&lt;Grupo&gt;"><path id="_Trazado_compuesto_4" data-name="&lt;Trazado compuesto&gt;" class="cls-1" d="M26,29.63A1.66,1.66,0,1,1,27.66,28,1.67,1.67,0,0,1,26,29.63Zm0-2.49a.83.83,0,1,0,.83.83A.83.83,0,0,0,26,27.13Z"/></g></g><g id="_Grupo_11" data-name="&lt;Grupo&gt;"><g id="_Grupo_12" data-name="&lt;Grupo&gt;"><path id="_Trazado_compuesto_5" data-name="&lt;Trazado compuesto&gt;" class="cls-1" d="M15.93,29.63A1.66,1.66,0,1,1,17.59,28,1.67,1.67,0,0,1,15.93,29.63Zm0-2.49a.83.83,0,1,0,.83.83A.83.83,0,0,0,15.93,27.13Z"/></g></g></g><g id="_Grupo_13" data-name="&lt;Grupo&gt;"><g id="_Grupo_14" data-name="&lt;Grupo&gt;"><path id="_Trazado_compuesto_6" data-name="&lt;Trazado compuesto&gt;" class="cls-1" d="M19.3,24.89H14.49V13H19.3Zm-3.14-1.67h1.47v-8.6H16.16Z"/></g></g><g id="_Grupo_15" data-name="&lt;Grupo&gt;"><g id="_Grupo_16" data-name="&lt;Grupo&gt;"><path id="_Trazado_compuesto_7" data-name="&lt;Trazado compuesto&gt;" class="cls-1" d="M26.23,24.89H21.43V13h4.81ZM23.1,23.22h1.47v-8.6H23.1Z"/></g></g><g id="_Grupo_17" data-name="&lt;Grupo&gt;"><g id="_Grupo_18" data-name="&lt;Grupo&gt;"><rect id="_Rect치ngulo_" data-name="&lt;Rect치ngulo&gt;" class="cls-1" x="40.57" y="34.07" width="2.78" height="1.44"/></g></g><g id="_Grupo_19" data-name="&lt;Grupo&gt;"><g id="_Grupo_20" data-name="&lt;Grupo&gt;"><rect id="_Rect치ngulo_2" data-name="&lt;Rect치ngulo&gt;" class="cls-1" x="36.93" y="34.07" width="2.78" height="1.44"/></g></g></g><rect id="_Trazado_" data-name="&lt;Trazado&gt;" class="cls-1" x="7.36" y="42.07" width="0.39" height="3.08"/><g id="_Grupo_21" data-name="&lt;Grupo&gt;"><rect id="_Trazado_2" data-name="&lt;Trazado&gt;" class="cls-1" x="5" y="44.48" width="3.7" height="1"/></g><g id="_Grupo_22" data-name="&lt;Grupo&gt;"><circle id="_Trazado_3" data-name="&lt;Trazado&gt;" class="cls-1" cx="7.55" cy="41.14" r="1.13"/></g></svg>