<svg id="Layer_1" data-name="Layer 1" xmlns="http://www.w3.org/2000/svg" viewBox="0 0 55 55"><defs><style>.cls-1{fill:#dfdfdf;}</style></defs><title>Artboard 2 copy 59</title><g id="_Grupo_" data-name="&lt;Grupo&gt;"><g id="_Grupo_2" data-name="&lt;Grupo&gt;"><path id="_Trazado_compuesto_" data-name="&lt;Trazado compuesto&gt;" class="cls-1" d="M41.69,26.47V48H13.12V26.47H41.69m2-2H11.12V50H43.69V24.47Z"/></g><g id="_Grupo_3" data-name="&lt;Grupo&gt;"><path id="_Trazado_compuesto_2" data-name="&lt;Trazado compuesto&gt;" class="cls-1" d="M27.5,7.2l20.25,9.38V48H7.25V16.58L27.5,7.2m0-2.2L5.25,15.31V50h44.5V15.31L27.5,5Z"/></g><g id="_Grupo_4" data-name="&lt;Grupo&gt;"><path id="_Trazado_" data-name="&lt;Trazado&gt;" class="cls-1" d="M38.76,45.23H16.24a.5.5,0,1,1,0-1H38.76a.5.5,0,0,1,0,1Z"/></g><g id="_Grupo_5" data-name="&lt;Grupo&gt;"><path id="_Trazado_2" data-name="&lt;Trazado&gt;" class="cls-1" d="M38.76,36.25H16.24a.5.5,0,1,1,0-1H38.76a.5.5,0,1,1,0,1Z"/></g><g id="_Grupo_6" data-name="&lt;Grupo&gt;"><path id="_Trazado_3" data-name="&lt;Trazado&gt;" class="cls-1" d="M38.76,31.76H16.24a.5.5,0,1,1,0-1H38.76a.5.5,0,0,1,0,1Z"/></g><g id="_Grupo_7" data-name="&lt;Grupo&gt;"><path id="_Trazado_4" data-name="&lt;Trazado&gt;" class="cls-1" d="M38.76,40.74H16.24a.5.5,0,1,1,0-1H38.76a.5.5,0,1,1,0,1Z"/></g><g id="_Grupo_8" data-name="&lt;Grupo&gt;"><g id="_Grupo_9" data-name="&lt;Grupo&gt;"><rect id="_Rectángulo_" data-name="&lt;Rectángulo&gt;" class="cls-1" x="15.19" y="18.04" width="3.69" height="2.48"/></g><g id="_Grupo_10" data-name="&lt;Grupo&gt;"><rect id="_Rectángulo_2" data-name="&lt;Rectángulo&gt;" class="cls-1" x="25.66" y="18.04" width="3.69" height="2.48"/></g><g id="_Grupo_11" data-name="&lt;Grupo&gt;"><rect id="_Rectángulo_3" data-name="&lt;Rectángulo&gt;" class="cls-1" x="36.12" y="18.04" width="3.69" height="2.48"/></g></g></g></svg>